<?xml version="1.0" standalone="no"?>
<!DOCTYPE svg PUBLIC "-//W3C//DTD SVG 20010904//EN"
 "http://www.w3.org/TR/2001/REC-SVG-20010904/DTD/svg10.dtd">
<svg version="1.0" xmlns="http://www.w3.org/2000/svg"
 width="16.000000pt" height="16.000000pt" viewBox="0 0 16.000000 16.000000"
 preserveAspectRatio="xMidYMid meet">
<metadata>
Created by potrace 1.11, written by Peter Selinger 2001-2013
</metadata>
<g transform="translate(0.000000,16.000000) scale(0.005161,-0.005161)"
fill="#000000" stroke="none">
<path d="M1557 2364 c-3 -5 -46 -9 -96 -8 -50 0 -91 -2 -91 -6 0 -3 -17 -6
-37 -6 -83 -2 -94 -4 -87 -15 4 -8 0 -8 -15 0 -15 9 -21 9 -21 1 0 -7 -6 -10
-12 -7 -7 2 -21 0 -30 -5 -13 -6 -18 -5 -18 4 0 10 -2 10 -9 0 -4 -7 -23 -16
-42 -19 -19 -3 -37 -10 -40 -15 -4 -6 -9 -5 -12 3 -4 10 -6 10 -6 2 -1 -7 -12
-13 -25 -13 -14 0 -27 -4 -31 -9 -3 -5 -18 -12 -34 -16 -16 -3 -32 -13 -35
-22 -5 -12 -9 -13 -20 -4 -11 9 -16 9 -23 -1 -12 -19 -63 -41 -63 -27 0 8 -5
7 -15 -1 -12 -10 -15 -10 -15 1 0 9 -3 10 -8 3 -8 -13 -122 -13 -122 0 0 5 -8
2 -17 -5 -11 -10 -14 -10 -9 -1 5 8 -1 12 -21 13 -15 1 -31 1 -35 0 -5 0 -8 5
-8 12 0 8 -4 7 -10 -3 -5 -8 -10 -10 -10 -4 0 11 -35 28 -52 25 -5 -1 -8 5 -8
12 0 9 -2 9 -8 -1 -6 -9 -14 -7 -31 9 -12 12 -28 22 -36 23 -7 1 -20 8 -29 15
-9 7 -17 10 -17 5 -5 -34 -4 -66 3 -70 4 -3 8 -18 8 -35 0 -16 4 -29 10 -29 5
0 9 -11 8 -26 -2 -21 -6 -24 -28 -19 -13 4 -27 10 -30 15 -3 4 -16 10 -30 11
-14 2 -31 10 -38 17 -8 7 -18 10 -23 7 -5 -4 -9 -2 -9 3 0 5 -14 15 -31 22
-17 7 -37 19 -44 26 -11 11 -14 11 -19 -1 -3 -8 0 -15 7 -15 9 0 9 -2 -1 -8
-10 -7 -10 -15 -2 -37 6 -16 9 -34 6 -42 -3 -7 -1 -13 5 -13 6 0 8 -4 4 -9 -3
-5 -1 -12 4 -16 6 -3 8 -12 4 -20 -3 -8 0 -15 6 -15 6 0 10 -4 8 -8 -3 -12 45
-112 55 -112 5 0 7 -4 4 -9 -3 -5 6 -20 21 -35 14 -14 22 -26 19 -26 -4 0 8
-16 28 -35 20 -19 36 -39 36 -45 0 -5 5 -10 10 -10 15 0 60 -47 53 -54 -4 -3
0 -6 8 -6 11 0 11 -2 -1 -10 -8 -5 -11 -10 -6 -10 5 0 4 -6 -2 -12 -5 -7 -13
-26 -16 -43 -3 -16 -8 -43 -12 -60 -4 -16 -6 -38 -6 -48 0 -9 -3 -15 -8 -12
-10 6 -8 -15 3 -32 5 -7 4 -13 -2 -13 -5 0 -8 -13 -6 -30 3 -19 0 -30 -8 -30
-8 0 -8 -3 -2 -8 12 -8 15 -52 4 -52 -4 0 -4 -13 1 -30 6 -20 5 -30 -2 -30 -7
0 -7 -4 -1 -12 5 -7 9 -30 7 -50 -1 -23 3 -38 10 -38 6 0 4 -5 -4 -10 -10 -6
-11 -10 -3 -10 7 0 13 -10 13 -22 0 -47 5 -68 13 -68 5 0 7 -7 3 -15 -3 -8 -1
-15 5 -15 6 0 7 -4 4 -10 -3 -5 -1 -10 5 -10 6 0 8 -4 5 -10 -3 -5 -1 -10 5
-10 6 0 9 -4 5 -9 -3 -5 2 -17 11 -25 8 -9 12 -16 8 -16 -4 0 3 -9 16 -20 13
-11 20 -20 16 -20 -5 0 8 -16 27 -35 19 -19 38 -35 42 -35 4 0 16 -10 26 -22
11 -11 19 -16 19 -9 0 8 6 7 16 -4 9 -9 29 -19 45 -22 16 -3 29 -10 29 -15 0
-5 6 -8 13 -5 6 2 18 -3 25 -12 8 -9 11 -10 7 -3 -7 13 7 17 19 5 6 -7 32 -12
74 -15 12 -1 22 -6 22 -11 0 -5 7 -4 15 3 11 9 15 9 15 1 0 -8 5 -9 19 -1 14
7 22 7 26 0 5 -8 11 -7 21 1 8 6 14 7 14 2 0 -5 9 -9 20 -9 11 0 20 3 20 6 0
9 32 6 48 -4 7 -4 12 -2 12 6 0 8 3 9 8 3 9 -12 52 -15 52 -3 0 5 9 4 20 -2
11 -6 20 -7 20 -2 0 10 30 9 48 -2 7 -4 12 -2 12 6 0 8 3 9 8 3 8 -11 52 -15
52 -5 0 8 37 6 46 -3 4 -4 13 -2 21 4 9 9 13 8 13 0 0 -8 5 -9 18 -2 13 7 23
6 30 -1 9 -9 12 -9 12 2 0 11 3 11 12 2 8 -8 15 -9 25 -1 7 7 13 7 13 2 0 -5
9 -9 20 -9 11 0 20 5 20 10 0 6 5 5 12 -2 8 -8 17 -8 31 -1 15 8 18 8 12 -1
-6 -9 -2 -9 14 -1 16 9 21 9 21 0 0 -8 4 -8 15 1 8 7 15 9 15 4 0 -5 11 -9 25
-9 14 0 25 2 25 5 0 7 70 4 77 -4 3 -3 14 -1 24 5 13 7 19 6 19 -1 0 -6 5 -8
12 -4 17 11 68 10 68 0 0 -6 5 -5 11 1 6 6 23 8 43 3 19 -4 41 -3 50 2 11 6
16 5 16 -3 0 -8 4 -8 15 1 8 7 15 9 15 4 0 -5 11 -9 25 -9 14 0 25 4 25 9 0 5
6 4 13 -3 10 -8 17 -7 25 1 9 9 12 9 12 -3 0 -12 2 -12 10 1 5 8 10 10 10 4 0
-11 60 -12 78 0 7 4 12 2 12 -4 0 -8 6 -8 20 0 14 8 20 8 20 0 0 -6 5 -8 11
-5 5 4 22 9 37 11 50 8 67 11 67 13 0 3 36 12 53 13 6 1 12 5 12 10 0 4 3 7 8
6 12 -3 83 33 130 67 31 23 82 82 82 95 0 6 5 10 11 10 5 0 7 5 4 10 -3 6 -1
10 4 10 6 0 11 4 11 9 0 5 7 26 17 47 9 22 17 46 18 54 2 8 6 29 10 45 4 17 8
46 10 65 1 19 4 51 6 70 2 19 0 41 -5 48 -4 6 -3 12 2 12 5 0 8 12 6 28 -2 15
-5 55 -6 90 -2 34 -5 62 -8 62 -3 0 -6 19 -8 42 -1 23 -8 49 -15 57 -10 12 -9
13 3 6 12 -6 13 -5 3 6 -7 7 -13 23 -13 36 0 13 -4 23 -9 23 -11 0 -9 31 4 50
6 9 25 28 43 43 19 15 30 27 26 27 -3 0 5 9 19 21 15 11 26 23 24 27 -1 4 2 8
7 9 5 1 20 21 34 45 14 24 30 46 36 50 6 4 8 8 3 8 -4 0 0 11 9 25 9 14 12 25
8 25 -5 0 -2 6 6 13 8 7 16 19 17 27 1 8 5 26 8 40 4 14 8 37 8 52 1 14 5 24
8 22 4 -2 6 12 6 31 -1 21 -6 35 -14 35 -7 0 -13 -3 -13 -7 0 -5 -25 -19 -55
-33 -30 -14 -55 -28 -55 -31 0 -3 -6 -6 -12 -7 -37 -3 -54 -8 -60 -16 -8 -12
-47 -15 -54 -4 -3 4 0 8 6 8 6 0 9 4 5 9 -3 5 -1 12 5 16 6 4 8 11 5 16 -4 5
-1 9 5 9 6 0 8 5 5 10 -3 6 -3 15 1 22 11 18 13 77 3 84 -5 3 -9 1 -9 -5 0 -6
-7 -7 -17 -4 -10 4 -14 2 -10 -4 4 -7 -7 -16 -28 -23 -19 -6 -33 -15 -31 -19
3 -4 -8 -7 -24 -6 -16 1 -27 -2 -24 -7 3 -4 -3 -9 -13 -10 -33 -2 -38 -3 -50
-11 -25 -16 -211 -29 -219 -15 -3 5 -11 5 -17 1 -20 -12 -37 -12 -34 0 1 7 -4
11 -10 10 -7 -2 -22 4 -32 14 -11 9 -32 17 -47 19 -15 2 -30 7 -33 12 -6 9
-101 38 -113 34 -5 -1 -8 3 -8 8 0 6 -6 10 -12 9 -26 -3 -49 1 -44 9 2 4 -4 8
-14 8 -10 0 -16 -4 -13 -9 3 -5 -4 -4 -15 2 -11 6 -32 11 -46 11 -14 0 -26 4
-26 8 0 4 -22 8 -50 7 -27 -1 -50 2 -50 5 0 3 -39 5 -87 5 -49 0 -91 4 -94 9
-4 4 -9 4 -12 0z m-447 -524 c0 -3 12 -7 27 -8 15 -1 29 -6 32 -11 3 -4 14 -7
23 -6 9 2 19 -3 22 -11 3 -8 12 -14 21 -14 9 0 23 -6 31 -12 39 -32 84 -77 84
-83 0 -4 9 -16 21 -26 11 -9 19 -19 18 -21 -1 -2 8 -22 19 -44 12 -23 18 -44
15 -48 -3 -3 0 -12 7 -21 7 -8 10 -15 6 -15 -3 0 -1 -12 4 -26 7 -18 7 -23 -1
-18 -8 4 -8 0 0 -15 8 -14 8 -21 1 -21 -8 0 -8 -6 0 -20 6 -11 7 -20 2 -20 -5
0 -8 -18 -8 -39 1 -22 -3 -39 -8 -38 -6 1 -10 -5 -11 -13 0 -8 -6 -25 -13 -37
-7 -13 -10 -23 -7 -23 4 0 0 -6 -7 -14 -7 -7 -20 -24 -28 -36 -19 -29 -62 -70
-73 -70 -4 0 -5 -4 -2 -10 4 -6 -1 -7 -11 -3 -11 4 -15 3 -10 -5 4 -6 -8 -16
-29 -23 -19 -7 -35 -16 -35 -21 0 -4 -7 -5 -15 -2 -8 4 -15 1 -15 -6 0 -7 -6
-10 -14 -7 -7 3 -19 0 -25 -6 -6 -6 -11 -7 -11 -3 0 5 -8 2 -17 -5 -15 -12
-16 -12 -8 1 8 13 7 13 -8 1 -12 -9 -17 -10 -17 -2 0 9 -5 9 -20 1 -15 -8 -20
-8 -20 2 0 8 -3 9 -8 3 -9 -12 -32 -18 -32 -7 0 4 -14 8 -31 8 -17 1 -35 8
-40 15 -7 12 -9 11 -9 -1 0 -10 -3 -11 -8 -3 -4 6 -16 13 -27 15 -20 3 -31 10
-60 36 -8 7 -15 10 -15 7 0 -12 -97 95 -111 123 -8 15 -18 30 -24 34 -5 4 -6
8 -1 8 4 0 1 12 -9 26 -11 18 -12 24 -4 18 12 -6 12 -5 0 9 -7 9 -10 17 -6 17
4 0 1 8 -6 17 -12 15 -12 16 1 8 12 -6 13 -5 3 6 -17 17 -17 32 0 23 9 -6 9
-4 1 7 -14 19 -16 61 -2 53 7 -5 8 -2 2 7 -11 18 -14 39 -5 39 4 0 7 8 8 18 1
9 3 24 6 32 2 8 7 27 12 43 4 15 11 27 16 27 5 0 9 6 9 14 0 7 12 25 26 40 15
14 23 26 18 26 -4 0 11 14 34 31 23 17 42 35 42 40 0 5 3 8 8 7 4 -1 27 8 51
20 25 12 65 25 90 28 25 3 47 7 48 8 5 4 103 0 103 -4z m905 0 c4 -6 12 -7 18
-3 20 13 47 13 69 2 15 -8 19 -8 14 0 -4 6 -3 11 3 11 5 0 12 -4 16 -10 3 -5
12 -7 20 -3 8 3 15 1 15 -5 0 -6 9 -8 20 -5 11 3 20 0 20 -6 0 -6 9 -11 20
-11 11 0 20 -5 20 -11 0 -5 5 -7 10 -4 6 3 10 1 10 -5 0 -6 4 -9 8 -6 5 3 21
-8 36 -25 15 -16 35 -29 44 -29 14 0 14 -2 3 -9 -11 -7 -9 -10 8 -16 11 -3 21
-14 21 -24 0 -19 23 -45 32 -36 2 3 5 -1 6 -8 3 -40 7 -55 13 -51 4 2 9 -3 13
-11 3 -8 0 -15 -7 -15 -8 0 -8 -3 2 -9 7 -5 11 -13 7 -19 -3 -6 -2 -13 2 -16
5 -3 10 -38 11 -78 1 -48 -2 -68 -8 -59 -6 10 -8 3 -6 -22 2 -20 -1 -37 -6
-37 -6 0 -7 -4 -4 -10 3 -5 0 -10 -7 -10 -10 0 -9 -3 2 -10 12 -8 12 -10 -3
-16 -9 -3 -14 -10 -11 -15 3 -5 -2 -12 -10 -15 -9 -3 -14 -9 -11 -14 2 -4 -6
-18 -18 -31 -12 -13 -22 -27 -22 -31 0 -5 -4 -9 -10 -10 -5 -2 -22 -15 -38
-31 -15 -15 -35 -27 -43 -27 -9 0 -12 -5 -8 -12 5 -8 2 -9 -10 -5 -10 4 -19 1
-22 -7 -3 -8 -13 -13 -22 -12 -9 2 -26 -3 -38 -11 -11 -7 -24 -10 -27 -6 -4 3
-7 0 -7 -8 0 -12 -2 -12 -9 0 -6 10 -13 11 -29 2 -26 -14 -35 -14 -26 0 4 7
-1 7 -16 -1 -18 -10 -24 -9 -31 1 -7 11 -9 11 -9 -1 0 -11 -2 -12 -8 -3 -4 7
-16 12 -27 12 -40 1 -55 4 -55 13 0 4 -6 8 -13 8 -18 0 -67 24 -67 33 0 4 -6
7 -13 7 -7 0 -34 24 -60 53 -66 74 -67 74 -67 92 0 8 -4 15 -9 15 -5 0 -12 15
-16 33 -4 17 -10 39 -12 47 -3 8 -5 24 -6 35 0 11 -5 23 -10 26 -6 4 -6 13 -1
20 12 19 12 32 2 46 -5 6 -5 14 2 18 6 3 8 11 5 16 -4 5 -2 9 4 9 6 0 8 6 5
14 -3 8 -1 17 5 20 6 4 8 13 5 20 -3 7 2 19 11 26 8 7 15 21 15 31 0 11 5 19
10 19 6 0 10 6 10 13 0 24 111 127 136 127 9 0 12 5 8 13 -4 6 -3 9 1 4 5 -4
18 -1 29 6 12 8 31 13 44 12 12 -1 27 4 33 12 14 16 26 17 34 3z m-429 -745
c4 -8 10 -13 14 -10 4 3 13 -2 20 -10 7 -8 16 -12 21 -9 5 3 9 0 9 -5 0 -6 7
-11 16 -11 8 0 12 -4 9 -10 -3 -5 1 -10 10 -10 14 0 13 -3 -2 -27 -10 -16 -22
-31 -28 -35 -5 -4 -6 -8 -2 -8 7 0 0 -11 -31 -45 -7 -8 -11 -15 -7 -15 3 0 -5
-12 -19 -27 -14 -15 -23 -30 -21 -34 3 -4 -2 -10 -10 -13 -10 -4 -20 3 -27 19
-6 14 -15 25 -20 25 -5 0 -7 4 -4 9 3 5 -1 11 -9 15 -8 3 -15 12 -15 21 0 8
-5 15 -11 15 -5 0 -8 4 -5 9 3 5 -1 11 -9 15 -8 3 -15 11 -15 18 0 6 -9 22
-21 34 l-20 22 30 13 c17 8 31 17 31 21 0 5 7 8 15 8 8 0 15 3 15 8 0 9 40 29
63 31 10 0 20 -6 23 -14z"/>
<path d="M1024 1691 c4 -6 -3 -10 -16 -9 -33 2 -88 -13 -88 -23 0 -5 -4 -8 -9
-6 -11 3 -71 -62 -71 -77 0 -6 -5 -4 -10 4 -8 12 -10 12 -10 -5 0 -11 -6 -32
-14 -46 -16 -31 -19 -159 -4 -159 6 0 8 -11 6 -25 -3 -13 -1 -22 4 -19 4 3 11
-3 15 -13 3 -10 13 -22 20 -26 7 -5 11 -12 8 -17 -3 -5 4 -11 15 -15 11 -3 20
-11 20 -16 0 -5 5 -9 12 -9 6 0 20 -7 30 -17 12 -11 18 -12 18 -4 0 9 4 9 14
-1 22 -23 186 -11 186 13 0 5 6 9 14 9 8 0 22 10 30 22 9 12 16 19 16 15 0
-16 40 34 46 58 3 14 10 25 15 25 4 0 6 9 4 20 -2 11 -1 20 3 20 4 0 8 16 9
35 0 23 -3 33 -11 28 -6 -4 -5 1 3 11 9 10 11 20 5 24 -5 4 -11 16 -12 27 -2
11 -8 21 -12 23 -5 2 -7 9 -4 17 6 14 -48 75 -67 75 -7 0 -9 3 -6 6 9 9 -62
46 -73 39 -6 -4 -10 -2 -10 3 0 5 -10 8 -22 8 -13 -1 -31 2 -42 7 -12 6 -16 6
-12 -2z m40 -100 c5 0 -1 -9 -12 -20 -12 -10 -19 -21 -15 -25 3 -3 2 -6 -3 -6
-5 0 -10 -11 -10 -25 -1 -14 2 -25 8 -25 5 0 7 -4 3 -10 -3 -5 4 -19 15 -30
11 -11 25 -18 30 -15 6 4 10 1 10 -4 0 -6 5 -11 11 -11 5 0 7 6 3 13 -5 8 -2
8 9 -2 12 -9 17 -10 17 -2 0 7 4 10 9 6 5 -3 16 3 23 12 20 27 33 24 34 -8 1
-16 -3 -29 -7 -29 -5 0 -8 -3 -7 -7 3 -16 -22 -62 -41 -75 -12 -8 -18 -18 -13
-23 4 -4 -1 -5 -10 -2 -10 4 -18 2 -18 -4 0 -6 -4 -7 -10 -4 -5 3 -10 2 -10
-3 0 -12 -93 -4 -101 9 -3 6 -10 11 -15 10 -16 0 -66 47 -60 57 3 6 1 12 -4
14 -6 2 -12 29 -14 60 -1 32 1 55 5 52 4 -2 10 0 14 6 3 5 1 10 -4 10 -6 0 1
13 15 30 15 16 31 27 35 24 5 -3 9 0 9 7 0 7 3 10 6 6 4 -3 12 0 19 6 10 11
40 14 79 8z"/>
<path d="M1981 1674 c-24 -7 -49 -21 -56 -30 -7 -11 -17 -14 -25 -9 -9 5 -11
4 -6 -4 4 -6 0 -14 -8 -17 -9 -3 -16 -12 -16 -20 0 -8 -3 -14 -8 -14 -24 0
-60 -149 -38 -162 8 -6 7 -8 -2 -8 -10 0 -10 -5 -1 -22 7 -13 12 -24 11 -25
-6 -9 45 -93 56 -93 7 0 11 -4 8 -8 -2 -4 9 -14 25 -21 16 -7 27 -17 23 -22
-3 -5 -2 -9 3 -8 4 1 10 0 13 -1 34 -13 153 -19 168 -8 6 6 12 7 12 3 0 -4 7
-1 17 6 9 8 18 13 20 12 9 -7 23 -2 18 7 -3 6 -1 10 5 10 17 0 61 36 53 44 -3
3 -2 6 4 6 15 0 56 89 49 106 -3 8 -2 14 3 14 4 0 7 10 5 23 -1 12 -3 37 -3
55 -1 21 -5 31 -12 27 -6 -4 -10 -1 -8 6 3 29 -1 50 -11 44 -9 -5 -15 15 -11
37 0 5 -2 7 -7 6 -12 -5 -52 28 -44 37 4 4 1 6 -7 3 -8 -2 -23 4 -33 14 -9 9
-24 15 -33 12 -8 -4 -15 -2 -15 2 0 15 -102 13 -149 -2z m109 -85 c0 -5 -7
-12 -15 -15 -8 -4 -13 -10 -10 -14 3 -5 1 -11 -4 -15 -6 -3 -8 -12 -4 -20 3
-8 0 -15 -6 -15 -7 0 -4 -11 6 -27 25 -39 53 -66 53 -51 0 9 3 9 11 1 13 -13
52 -2 75 22 9 8 21 15 27 14 8 0 8 -2 -1 -6 -9 -4 -10 -8 -2 -18 8 -9 8 -15 0
-20 -5 -3 -10 -17 -10 -30 0 -24 -50 -85 -69 -85 -6 0 -11 -5 -11 -11 0 -6 -7
-9 -15 -6 -8 4 -17 2 -20 -3 -5 -8 -30 -7 -81 5 -24 5 -73 49 -91 81 -9 17 -9
24 0 34 9 10 9 11 -1 5 -11 -6 -13 2 -11 31 1 22 6 44 10 49 4 6 8 14 8 18 0
9 61 72 61 63 0 -2 10 1 23 7 28 15 77 18 77 6z"/>
</g>
</svg>
